<svg width="196" height="196" viewBox="0 0 196 196" fill="none" xmlns="http://www.w3.org/2000/svg">
<path d="M193.815 127.65C192.408 137.17 189.067 146.691 184.142 155.154C161.632 193.414 100.431 201.701 56.4655 189.006C50.662 187.243 45.0343 185.304 39.9343 182.835C21.8203 174.196 10.0375 156.917 4.76154 138.934C3.0029 133.115 1.94772 127.297 1.59599 121.655C-0.162644 95.9135 11.9719 68.5852 34.8342 51.6592C42.3964 46.0172 50.4861 40.0226 59.8069 37.7306C69.3035 35.4385 77.3932 40.3752 86.714 40.3752C94.2762 40.5516 100.959 37.0253 108.169 35.2622C110.28 34.7333 112.214 34.3806 114.325 34.2043C119.425 33.6754 124.525 34.028 129.449 35.2622C156.884 42.491 180.449 63.6484 190.122 90.2715C194.518 102.437 195.749 115.308 193.815 127.65Z" fill="#FF8900"/>
<path d="M193.815 127.65C192.408 137.171 189.067 146.692 184.143 155.155C161.632 193.414 100.432 201.701 56.4656 189.007C50.6621 187.243 45.0345 185.304 39.9345 182.836C21.8205 174.196 10.0376 156.918 4.76172 138.934C7.39967 144.223 10.7411 149.336 14.6101 153.92C19.1825 159.21 24.4584 163.97 30.4378 167.496C21.117 152.686 19.3584 133.468 25.8654 117.248C24.8102 139.463 38.1758 161.854 58.4001 171.375C53.8277 158.505 53.3001 139.815 55.7622 126.416C57.5208 144.4 66.314 166.086 80.7348 177.017C80.3831 171.375 80.0314 165.91 79.6796 160.268C81.4383 167.144 84.9555 173.491 89.8797 178.428C95.6832 159.386 98.1453 139.463 98.4971 119.363C100.607 129.589 103.421 139.815 105.356 150.042C106.939 158.152 108.521 166.262 108.17 174.549C123.294 160.268 130.504 138.934 133.142 118.305C135.78 134.526 140.528 156.918 132.087 172.61C147.035 161.502 158.115 144.929 162.511 126.768C162.687 139.287 160.929 151.805 157.587 163.794C167.787 157.623 178.163 151.276 185.725 141.931C188.891 137.7 191.705 132.763 193.815 127.65Z" fill="#ED7803"/>
<path d="M108.697 195.53C90.9349 196.94 72.645 195.177 56.1139 190.241C50.1345 188.477 44.5069 186.362 39.4068 183.893C27.9757 178.428 18.3032 169.259 11.2686 157.27C4.93753 146.692 1.06853 133.997 0.189215 121.832C-1.74529 94.5032 11.2686 67.3511 33.955 50.4252C41.3413 44.9595 49.7828 38.7886 59.4553 36.3202C65.4346 34.7334 71.0623 36.1439 76.3382 37.3781C79.6796 38.0834 83.1969 38.9649 86.89 38.9649C91.6383 38.9649 96.0349 37.5544 100.783 35.9676C103.069 35.2624 105.356 34.3808 107.818 33.8519C109.928 33.3229 112.039 32.9703 114.149 32.794C119.601 32.2651 124.877 32.6177 129.801 34.0282C157.939 41.6096 181.505 62.9433 191.353 89.9191C199.267 111.782 196.981 135.76 185.198 155.86C171.656 178.78 146.86 188.477 128.57 192.533C122.063 194.119 115.38 195.001 108.697 195.53ZM63.676 38.6123C62.6208 38.6123 61.3898 38.7886 60.3346 39.1412C51.1897 41.4333 43.2758 47.2516 35.7137 52.7173C13.7307 68.938 1.06853 95.3847 3.00303 121.479C4.40994 141.578 14.9618 169.436 40.462 181.601C45.3862 183.893 51.0138 186.009 56.8173 187.772C79.152 194.296 105.18 195.177 128.042 190.064C145.98 186.009 170.074 176.665 182.912 154.626C194.343 135.231 196.453 112.134 188.715 90.9769C179.394 64.7065 156.356 43.9017 129.097 36.6729C124.525 35.4387 119.425 35.0861 114.325 35.615C112.39 35.7913 110.28 36.1439 108.345 36.6729C106.059 37.2018 103.773 38.0834 101.663 38.7886C96.9142 40.3754 91.99 41.9622 86.7141 41.9622C82.8451 41.9622 79.152 41.0807 75.6347 40.1991C71.5899 39.1412 67.7209 38.2597 63.676 38.6123Z" fill="black"/>
<path d="M85.1312 42.8438C83.3726 43.549 81.614 43.7253 79.6795 43.7253C77.9208 43.7253 75.9863 43.549 74.2277 43.3727C72.469 43.1964 70.7104 43.1964 68.9518 43.3727C67.1931 43.549 65.6104 44.0779 64.0276 44.7832C60.862 46.1937 58.0482 48.1331 55.5861 50.6015C53.124 53.0699 51.0137 55.8908 49.0792 58.8881C47.1447 61.8854 45.386 64.8827 43.6274 68.0564C41.8688 71.23 40.286 74.4036 38.7032 77.7535C35.5377 84.1007 32.8997 90.6243 31.1411 97.6768C30.2618 101.027 29.5583 104.553 29.0307 108.079C28.5031 111.605 28.1514 115.132 28.1514 118.658C27.9755 122.184 28.1514 125.71 28.3273 129.237C28.679 132.763 29.0307 136.289 29.7342 139.815C29.91 140.697 30.0859 141.578 30.2618 142.46C30.4376 143.342 30.6135 144.223 30.9652 145.105L31.6687 147.573C31.8445 148.455 32.1963 149.336 32.548 150.041C33.779 153.391 35.1859 156.741 36.7687 159.739C38.5274 162.912 40.4619 165.909 42.5722 168.73C44.8585 171.551 47.1447 174.196 49.7826 176.665C46.9688 174.549 44.155 172.08 41.6929 169.436C39.2308 166.791 37.1204 163.794 35.0101 160.62C31.1411 154.449 28.3273 147.397 26.5686 140.344C23.0514 125.887 23.5789 110.724 27.0962 96.4426C29.0307 89.2138 31.6687 82.3376 35.1859 75.8141C38.7032 69.4669 41.8688 62.9433 46.2654 56.9487C48.3757 53.9514 50.8378 51.1304 53.6516 48.6621C56.4655 46.1937 59.631 44.0779 63.1483 42.8438C64.9069 42.3148 66.8414 41.7859 68.7759 41.7859C70.7104 41.7859 72.469 41.9622 74.2277 42.3148C75.9863 42.6674 77.745 43.0201 79.5036 43.1964C81.4381 43.3727 83.3726 43.1964 85.1312 42.8438Z" fill="#ED7803"/>
<path d="M96.9141 41.9622C100.607 41.0807 104.124 39.4939 107.993 38.436C109.928 37.9071 111.862 37.5544 113.797 37.5544C115.731 37.5544 117.842 37.9071 119.776 38.2597C127.338 40.3754 134.373 44.2543 140.528 49.191C146.683 54.1278 151.784 60.1224 156.004 66.8222C160.225 73.5221 163.391 80.7509 165.677 88.156C167.963 95.5611 169.546 103.319 170.425 111.077C170.777 114.955 171.129 118.834 171.129 122.713C171.304 126.592 171.129 130.471 170.777 134.35C170.425 138.229 169.722 142.107 168.842 145.986C167.963 149.865 166.556 153.568 164.973 157.094C161.808 164.146 157.235 170.67 151.256 175.607C156.532 169.965 160.577 163.441 163.215 156.389C164.622 152.862 165.677 149.16 166.38 145.457C166.732 143.518 167.084 141.755 167.26 139.815C167.435 137.876 167.611 136.113 167.787 134.173C167.963 132.234 167.963 130.471 167.963 128.531C167.963 126.592 167.963 124.829 167.787 122.889C167.611 119.187 167.26 115.308 166.732 111.605C165.853 104.024 164.27 96.6189 161.984 89.3901C159.697 82.1614 156.708 75.2852 152.839 68.7616C148.97 62.4144 144.046 56.5961 138.418 51.4831C135.604 49.0147 132.614 46.7227 129.273 44.7832C126.107 42.8438 122.59 41.257 119.073 40.0228C117.314 39.4939 115.556 38.9649 113.621 38.9649C111.862 38.7886 109.928 39.1413 107.993 39.4939C106.059 39.8465 104.3 40.3754 102.366 40.7281C100.607 41.257 98.8486 41.6096 96.9141 41.9622Z" fill="#ED7803"/>
<path d="M87.7692 42.4915C86.5381 43.5493 84.9554 44.4309 83.3726 45.1361C81.7898 45.8414 80.2071 46.3703 78.6243 46.8993C77.9208 47.2519 77.0415 47.4282 76.3381 47.7808C75.6346 48.1334 74.9311 48.4861 74.2277 49.015C72.8208 49.8966 71.7656 50.9544 70.5345 52.1886C68.4242 54.657 66.4897 57.3017 64.9069 60.299C63.3241 63.2963 62.0931 66.2936 61.2138 69.4672C60.1586 72.6408 59.631 75.8144 58.9275 79.1643C58.4 82.5143 57.8724 85.6879 57.5206 89.0378C57.1689 92.3877 56.993 95.7377 56.8172 99.0876C56.6413 102.438 56.8172 105.787 56.8172 109.137C56.993 112.487 57.1689 115.837 57.3448 119.187C57.6965 122.537 58.0482 125.887 58.4 129.237C59.2793 135.937 60.3345 142.637 61.7414 149.16C62.0931 150.747 62.4448 152.51 62.9724 154.097C63.3241 155.684 63.8517 157.271 64.3793 159.034C65.2586 162.207 66.3138 165.381 67.5449 168.554C68.7759 171.728 70.1828 174.725 72.1173 177.37C72.6449 178.075 73.1725 178.781 73.5242 179.31C74.0518 180.015 74.5794 180.544 75.2829 181.249C76.5139 182.483 77.745 183.541 79.1519 184.599C76.1622 183.012 73.5242 180.72 71.238 178.075C70.1828 176.841 69.1276 175.254 68.2483 173.844C67.369 172.433 66.4897 170.847 65.7862 169.26C64.2035 166.086 62.9724 162.912 61.9172 159.739C60.6862 156.565 59.8069 153.215 58.9275 149.865C58.4 148.279 58.0482 146.515 57.6965 144.929C57.3448 143.342 56.993 141.579 56.6413 139.992C55.9379 136.642 55.4103 133.292 54.8827 129.942C54.3551 126.592 54.0034 123.242 53.6516 119.716C53.2999 116.366 53.124 112.84 52.9482 109.49C52.5965 95.7377 53.8275 81.9853 58.0482 68.7619C60.3345 62.2384 63.8517 55.8912 68.7759 51.1307C70.007 49.8966 71.4139 48.8387 72.9966 47.9571C73.7001 47.6045 74.5794 47.2519 75.4587 46.8993C76.3381 46.5466 77.0415 46.3703 77.9208 46.194C79.5036 45.8414 81.2622 45.3124 82.845 44.7835C84.7795 44.0783 86.3623 43.373 87.7692 42.4915Z" fill="#ED7803"/>
<path d="M92.5176 43.0203C92.8693 43.9018 93.3969 44.4308 93.9245 44.9597C94.6279 45.4886 95.3314 45.8413 96.2107 46.0176C97.7935 46.3702 99.5521 46.3702 101.311 46.3702C104.828 46.5465 108.345 47.7807 111.335 49.7201C114.325 51.6595 116.963 54.1279 119.073 56.9489C121.183 59.7699 122.766 62.9435 124.173 66.1171C125.58 69.2907 126.635 72.6407 127.514 75.9906C127.866 77.5774 128.394 79.3405 128.745 80.9273C129.097 82.6904 129.449 84.2772 129.801 86.0404C131.208 92.7402 132.087 99.6164 132.79 106.493C133.318 113.369 133.494 120.245 133.318 127.121C133.318 128.884 133.142 130.647 132.966 132.234C132.79 133.997 132.79 135.584 132.615 137.347C132.263 140.697 131.911 144.223 131.383 147.573C130.856 150.923 130.152 154.449 129.273 157.799C128.394 161.149 127.339 164.499 125.932 167.673C123.294 174.02 119.601 180.015 114.676 184.775C119.073 179.486 122.063 173.315 124.173 166.968C125.228 163.794 126.108 160.444 126.811 157.27C127.514 153.92 128.042 150.571 128.394 147.221C129.097 140.521 129.625 133.821 129.625 126.945C129.801 120.245 129.449 113.369 128.921 106.669C128.394 99.969 127.514 93.2692 126.283 86.5693C125.932 84.9825 125.58 83.2194 125.404 81.6326C125.052 80.0458 124.701 78.2826 124.349 76.6958C123.47 73.3459 122.766 70.1723 121.535 66.9987C120.48 63.8251 118.897 60.8278 117.138 58.1831C115.38 55.5384 113.094 53.07 110.456 51.1306C107.818 49.1912 104.652 47.7807 101.487 47.4281C99.9039 47.2517 98.1452 47.0754 96.3866 46.5465C95.5073 46.1939 94.8038 45.8413 94.1004 45.136C93.221 44.6071 92.6934 43.7255 92.5176 43.0203Z" fill="#ED7803"/>
<path d="M89.5278 43.3728C91.9899 55.0094 93.9244 66.8223 95.3313 78.6352C95.6831 81.6325 96.0348 84.6298 96.3865 87.4508L97.2658 96.4427C97.6176 99.44 97.7934 102.437 97.9693 105.435L98.6727 114.427L99.2003 123.418C99.3762 126.416 99.3762 129.413 99.5521 132.41L99.7279 141.402V145.81V150.218C99.7279 162.207 99.2003 174.02 98.1451 186.009L96.7382 150.218L96.5624 145.81L96.3865 141.402L96.0348 132.41C95.8589 129.413 95.6831 126.416 95.5072 123.595L94.9796 114.603L94.452 105.787C94.2761 102.79 94.1003 99.7926 93.9244 96.9716L93.221 88.156C93.0451 85.1587 92.6934 82.1614 92.5175 79.3404L89.5278 43.3728Z" fill="#ED7803"/>
<path d="M8.80664 94.8557C10.917 86.7453 14.4343 78.8113 19.1826 71.7588C21.4688 68.2326 24.1068 64.8826 26.9206 61.709C29.7344 58.5354 32.9 55.7144 36.2414 52.8934C39.5828 50.2487 43.1001 47.7804 46.7932 45.6646C50.4863 43.7252 54.5312 41.9621 58.7519 40.9042C60.8623 40.3753 62.9727 40.0227 65.083 39.8463C67.1934 39.67 69.3037 39.67 71.4141 39.8463C75.6348 40.199 79.8556 40.9042 83.9004 41.7858C79.6797 41.4332 75.459 41.0805 71.4141 41.2568C67.1934 41.2568 63.1485 41.7858 59.2795 43.02C55.4105 44.2541 51.5415 45.841 48.0242 47.9567C44.507 50.0724 41.1656 52.3645 37.8241 55.0092C34.6586 57.6538 31.4931 60.2985 28.6792 63.4721C25.8654 66.4694 23.2275 69.6431 20.7654 72.993C16.0171 79.6928 11.9722 86.9216 8.80664 94.8557Z" fill="#FFC064"/>
<path d="M79.8556 44.7834C77.9211 45.4886 75.8107 45.4886 73.8762 45.4886C72.8211 45.4886 71.9417 45.6649 71.0624 45.8412C70.5348 46.0176 70.1831 46.0176 69.6555 46.1939C69.1279 46.3702 68.7762 46.5465 68.2486 46.7228C66.49 47.4281 64.9072 48.3096 63.3244 49.3675C61.7416 50.4254 60.3347 51.6595 58.9278 53.07C56.114 55.891 53.8278 58.8883 51.3657 62.0619C49.0795 65.2356 46.7932 68.5855 44.1553 71.7591C45.738 68.0565 47.4967 64.354 49.607 61.0041C51.7174 57.4778 54.0036 54.1279 56.9933 51.1306C58.4002 49.7201 60.1589 48.3096 61.9175 47.2517C63.6761 46.1939 65.6106 45.136 67.721 44.6071C68.2486 44.4307 68.7762 44.4307 69.3038 44.2544C69.8314 44.0781 70.359 44.0781 70.8866 44.0781C71.9417 44.0781 72.9969 44.0781 74.0521 44.2544C75.9866 44.4307 77.7452 44.7834 79.8556 44.7834Z" fill="#FFC064"/>
<path d="M86.0108 45.6648C83.7246 46.7227 81.4384 47.7805 79.5039 49.3673C78.4487 50.0726 77.7452 50.9542 76.8659 51.8357C75.9866 52.7173 75.2831 53.7751 74.5797 54.833C73.1728 56.9488 71.9417 59.0645 71.0624 61.3566C70.7107 61.8855 70.5348 62.4144 70.3589 63.1197C70.1831 63.6486 69.8313 64.1775 69.6555 64.8828L68.952 66.6459L68.2486 68.409C66.4899 73.1695 65.2589 77.9299 64.2037 82.8666C63.6761 85.335 63.1485 87.8033 62.7968 90.2717C62.4451 92.7401 61.9175 95.3848 61.5658 97.8531C61.214 92.7401 61.3899 87.627 62.0933 82.514C62.7968 77.4009 63.852 72.2879 65.6106 67.3512C66.4899 64.8828 67.5451 62.5907 68.6003 60.1224C69.8313 57.8303 71.0624 55.5383 72.821 53.4225C74.5797 51.3068 76.3383 49.5437 78.8004 48.1332C81.0866 46.899 83.5487 46.1937 86.0108 45.6648Z" fill="#FFC064"/>
<path d="M98.1455 47.9568C100.608 47.9568 102.894 48.8383 105.004 50.0725C107.115 51.483 108.697 53.2461 110.28 55.1856C111.687 57.125 113.094 59.2407 114.149 61.3565C115.204 63.4722 116.259 65.588 117.139 67.88C118.897 72.4641 119.953 77.2246 120.48 81.985C121.008 86.7454 121.008 91.5058 120.656 96.2662C119.953 91.5058 119.249 86.9217 118.37 82.3376C117.491 77.7535 116.259 73.3457 114.677 68.9379C113.797 66.8222 112.918 64.7064 111.863 62.5907C110.808 60.4749 109.753 58.5355 108.521 56.5961C107.994 55.5382 107.29 54.6566 106.587 53.7751C106.235 53.2461 105.884 52.8935 105.532 52.5409C105.18 52.1883 104.652 51.6593 104.301 51.3067C102.542 49.7199 100.608 48.662 98.1455 47.9568Z" fill="#FFC064"/>
<path d="M98.6729 43.5499C100.959 43.1972 103.069 42.6683 105.356 42.1394C106.411 41.9631 107.642 41.6104 108.873 41.4341C110.104 41.2578 111.159 41.2578 112.39 41.2578C114.852 41.2578 117.139 41.7867 119.425 42.492C121.711 43.1972 123.821 44.2551 125.932 45.4893C129.977 47.9577 133.494 51.3076 136.308 55.0101C139.121 58.7127 141.584 62.7679 143.166 67.1757C140.528 63.4731 137.715 59.7706 134.725 56.5969C133.142 55.0101 131.559 53.4233 129.801 52.0128C128.042 50.6023 126.283 49.1918 124.525 48.134C122.59 46.8998 120.656 46.0182 118.721 45.313C116.611 44.6077 114.501 44.0788 112.39 43.7262C111.335 43.5499 110.28 43.5499 109.049 43.5499C107.994 43.5499 106.763 43.5499 105.707 43.7262C103.421 43.7262 100.959 43.9025 98.6729 43.5499Z" fill="#FFC064"/>
<path d="M137.891 43.02C144.046 45.3121 149.849 48.4857 155.125 52.3646C160.401 56.2434 165.325 61.0038 169.37 66.1169C173.415 71.4062 176.932 77.0482 179.57 83.2191C182.208 89.39 183.967 95.7373 184.67 102.261C182.736 95.9136 180.45 89.919 177.636 84.1007C174.646 78.2824 171.305 72.8167 167.26 67.88C163.215 62.767 158.818 58.1828 153.894 54.1277C148.97 50.0725 143.694 46.3699 137.891 43.02Z" fill="#FFC064"/>
<g opacity="0.5">
<path opacity="0.5" d="M106.939 43.1965C107.114 45.8412 99.5522 48.6621 89.8797 49.5437C80.2072 50.2489 72.2934 48.6621 72.1175 45.8412C71.9416 43.1965 79.5038 40.3755 89.1763 39.4939C98.8488 38.965 106.763 40.5518 106.939 43.1965Z" fill="#C66106"/>
</g>
<path d="M100.607 43.5499C93.9246 45.313 86.8901 46.5472 80.2073 44.9604C79.8555 44.7841 79.5038 44.7841 79.1521 44.4315C78.9762 44.2552 78.9762 43.9025 78.8004 43.5499C78.8004 43.021 78.4486 42.492 78.2728 41.9631C77.3935 39.3184 77.2176 36.1448 78.0969 33.5001C79.6797 27.6819 83.5487 23.4504 88.1211 19.7478C89.528 18.6899 90.7591 17.6321 91.9901 16.3979C92.5177 15.869 93.0453 15.1637 93.397 14.6348C96.035 10.5796 93.397 5.64286 90.0556 2.82187C89.8798 2.64556 89.7039 2.64556 89.528 2.46925C89.8798 2.11662 90.0556 1.764 90.4074 1.41138C92.8695 2.99818 95.3315 4.58499 97.4419 6.52442C99.3764 8.28754 100.607 10.9322 100.959 13.5769C100.959 13.9295 100.959 14.2821 100.959 14.6348C100.783 17.4558 99.2005 19.7478 97.6178 22.0399C97.266 22.5688 96.9143 23.0977 96.5626 23.6267C95.6833 25.2135 94.9798 26.624 94.804 28.5634C94.6281 30.8555 94.9798 33.1475 96.035 35.2633C96.9143 36.8501 97.9695 38.2606 98.8488 39.8474C99.2005 40.0237 100.783 43.5499 100.607 43.5499Z" fill="#844003"/>
<path d="M100.607 43.549C93.9246 45.3121 86.8901 46.5463 80.2073 44.9595C79.8555 44.7832 79.5038 44.7832 79.1521 44.4306C78.9762 44.2543 78.9762 43.9016 78.8004 43.549C78.8004 43.0201 78.4486 42.4911 78.2728 41.9622C77.3935 39.3175 77.2176 36.1439 78.0969 33.4992C79.6797 27.6809 83.5487 23.4494 88.1211 19.7469C89.528 18.689 90.7591 17.6312 91.9901 16.397C91.8143 17.1022 91.4625 17.6312 91.1108 18.1601C90.0556 20.0995 88.4729 21.6863 87.2418 23.6258C85.3073 26.4468 84.0763 29.6204 83.5487 32.9703C86.0108 28.2099 89.7039 24.1547 94.1005 21.3337C92.3419 22.5679 91.2867 24.8599 90.935 26.9757C90.5832 29.4441 90.7591 31.7361 91.1108 34.2045C91.6384 31.0309 92.166 27.6809 94.2764 25.2126C94.9798 24.5073 95.6833 23.9784 96.5626 23.4494C95.6833 25.0363 94.9798 26.4468 94.804 28.3862C94.6281 30.6782 94.9798 32.9703 96.035 35.086C96.9143 36.6728 97.9695 38.0833 98.8488 39.6701C99.2006 40.0228 100.783 43.549 100.607 43.549Z" fill="#682F00"/>
<path d="M89.5279 47.0753C87.4175 47.2516 85.483 47.2516 83.7244 47.0753C83.3727 47.0753 83.0209 47.0753 82.8451 47.0753C81.7899 47.0753 80.7347 47.0753 79.6795 46.5463C77.9209 45.6648 77.3933 43.9017 77.0416 42.6675V42.4912C76.1623 39.4939 76.1623 36.3203 77.0416 33.323C78.8002 26.7994 83.7244 21.8627 87.4175 18.8654C89.1762 17.4549 91.1107 15.8681 92.3417 13.9286C94.4521 10.5787 92.3417 6.34723 89.352 4.05517C89.1762 3.87886 89.0003 3.87886 89.0003 3.70255C88.6486 3.52624 88.4727 3.17361 88.4727 2.82099C88.4727 2.46837 88.4727 2.11574 88.8244 1.76312C89.1762 1.4105 89.352 1.05787 89.7038 0.705248C89.7038 0.176312 90.0555 0 90.5831 0C92.3417 0 99.5521 6.69985 99.728 6.69985C102.894 10.5787 103.069 15.8681 100.256 20.6285L100.08 20.8048C97.6176 24.86 95.3314 28.7388 96.9142 33.1466C97.4418 34.3808 98.1452 35.615 99.0245 36.8492C99.3763 37.5544 99.9038 38.2597 100.256 38.9649C101.135 40.3754 101.487 41.6096 101.838 42.8438C101.838 43.0201 102.014 43.549 101.662 44.078C101.311 44.6069 100.783 44.7832 100.607 44.7832C96.3866 46.1937 92.8693 46.7227 89.5279 47.0753ZM94.6279 5.99461C96.2107 8.8156 96.5624 12.3418 94.6279 15.3391C93.221 17.6312 90.9348 19.3943 89.0003 20.9811C85.483 23.8021 81.0864 28.2099 79.5037 34.0282C78.8002 36.6729 78.8002 39.3176 79.5037 41.7859V41.9622C79.8554 43.0201 80.0313 43.7254 80.5588 44.078C81.0864 44.2543 81.7899 44.4306 82.6692 44.4306C83.0209 44.4306 83.3727 44.4306 83.7244 44.4306C85.483 44.6069 87.2417 44.6069 89.1762 44.4306C91.99 44.2543 95.1555 43.7254 98.6728 42.6675C98.4969 41.9622 98.1452 41.257 97.6176 40.3754C97.2659 39.6702 96.9142 39.1412 96.3866 38.436C95.5073 37.2018 94.6279 35.7913 94.1003 34.2045C91.99 28.5625 94.8038 23.6258 97.4418 19.3943L97.6176 19.218C99.3763 16.2207 100.256 11.9892 97.2659 8.46297C97.2659 8.28666 96.0348 7.05248 94.6279 5.99461Z" fill="black"/>
<path d="M99.904 42.8439C99.3764 42.8439 98.8488 42.6675 98.673 42.1386C96.5626 38.965 95.8592 35.0861 96.5626 31.7362C97.2661 28.21 99.5523 25.0364 102.718 23.6259C103.245 22.568 104.125 21.6864 105.004 21.1575C107.466 19.3944 110.632 19.5707 113.446 19.9233C113.797 19.9233 114.149 19.9233 114.677 20.0996C119.425 20.4522 123.997 19.5707 128.394 17.6313C129.097 17.2786 129.977 17.6313 130.153 18.3365C130.504 19.0418 130.153 19.9233 129.449 20.0996C124.701 22.2154 119.601 23.0969 114.501 22.7443C114.149 22.7443 113.621 22.7443 113.27 22.568C110.808 22.3917 108.873 22.3917 107.29 22.9206C107.642 22.9206 107.994 23.0969 108.345 23.2732C110.456 23.9785 111.687 26.0942 111.511 28.0337C111.335 29.7968 109.928 31.5599 107.818 32.2651C105.883 32.9704 103.773 32.6178 102.542 31.3836C101.663 30.502 101.311 29.2678 101.311 28.0337C100.256 29.2678 99.3764 30.8546 99.0247 32.4415C98.4971 35.2624 99.2006 38.2598 100.783 40.7281C101.135 41.4334 100.959 42.1386 100.432 42.6676C100.256 42.8439 100.08 42.8439 99.904 42.8439ZM104.476 25.9179V26.0942C104.125 27.1521 103.773 28.7389 104.476 29.4442C105.004 29.9731 106.235 29.9731 106.939 29.7968C107.818 29.4442 108.697 28.7389 108.697 27.8573C108.697 27.1521 108.17 26.2705 107.29 25.9179C106.411 25.389 105.356 25.5653 104.476 25.9179Z" fill="black"/>
<path d="M78.3534 86.16C71.9534 87.52 65.3134 87.52 58.8334 88.16C57.1534 88.32 55.3934 88.56 53.6334 88.8C53.3934 88.88 52.9934 89.28 52.9134 89.6C53.0734 90.72 55.7934 91.12 56.7534 91.52C57.6334 91.84 58.2734 92.08 58.4334 93.28C58.5934 94.48 58.9934 95.52 57.7934 96.32C56.5934 99.2 56.3534 102.4 55.8734 105.52C55.6334 106.8 55.3134 108.08 55.6334 109.36C55.7134 109.68 55.6334 110.16 55.4734 110.4C54.2734 111.76 54.3534 113.52 53.9534 115.12C53.3934 117.84 52.9134 120.56 52.3534 123.28C52.1134 124.32 51.7134 125.28 52.1134 126.48C52.2734 126.8 51.8734 127.36 51.7934 127.76C51.3934 128.96 51.2334 130.24 50.9934 131.44C49.7134 136.4 50.0334 137.2 45.3934 139.84C45.3934 139.92 45.3934 140.08 45.3934 140.24C46.4334 140.48 47.3934 140.72 48.1934 140.96C48.5934 143.92 48.5134 146.96 49.5534 149.76C50.4334 148.64 50.2734 146.88 51.0734 145.84C52.5134 143.84 54.5934 142.16 55.1534 139.52C55.1534 139.04 55.5534 138.8 55.8734 138.48C55.9534 138.56 56.0334 138.56 56.1134 138.64C55.5534 140.88 55.8734 143.12 56.4334 145.52C56.5934 145.28 56.9134 145.2 56.9934 145.04C57.7934 142.8 58.9134 140.64 58.7534 138.32C59.7134 135.44 59.0734 132.4 59.9534 129.52C60.0334 129.52 60.1134 129.52 60.2734 129.6C60.4334 131.68 60.5934 133.76 60.8334 135.92C60.8334 136.08 61.0734 136.24 61.2334 136.48C62.1134 135.44 61.6334 132.56 62.4334 131.44C63.2334 131.68 63.2334 131.04 63.4734 130.64C63.7134 130.16 63.9534 129.68 64.1934 129.28C64.2734 129.28 64.3534 129.28 64.5134 129.28C64.6734 130.24 64.8334 131.2 64.9934 132.16C65.1534 132.16 65.2334 132.16 65.3134 132.16C65.6334 131.68 65.9534 131.2 66.1934 130.72C66.6734 129.76 66.7534 129.68 67.4734 129.84C67.4734 132.24 67.4734 134.72 67.4734 137.2C67.5534 137.2 67.6334 137.2 67.7134 137.28C67.9534 136.88 68.1934 136.56 68.5134 136.16C68.8334 139.76 69.3934 142.96 70.3534 146.4C70.3534 146.56 70.5934 146.72 70.7534 146.88C70.9134 146.72 71.1534 146.56 71.2334 146.4C71.7134 143.68 72.1934 141.28 72.5934 138.48C73.0734 139.52 73.5534 140.32 73.9534 141.12C74.1134 141.04 74.2734 141.04 74.4334 141.04C74.6734 138.96 74.9934 136.88 74.8334 134.8C74.5134 132.48 75.6334 132.64 76.0334 131.04C76.0334 129.76 75.8734 128.48 75.8734 127.12C75.6334 124.48 76.1934 121.76 75.5534 119.12C75.3934 118.32 75.3934 117.44 75.6334 116.56C75.6334 115.04 75.5534 113.52 75.4734 111.92C75.1534 106.72 74.9134 101.52 74.8334 96.24C74.8334 93.6 74.1934 92.96 75.8734 90.56C76.7534 89.04 78.7534 88.16 79.2334 86.4C78.9934 86.32 78.6734 86.16 78.3534 86.16ZM67.5534 116.88C67.7134 121.84 67.4734 120 61.5534 121.44C62.4334 117.04 63.2334 112.48 64.3534 108.16C64.0334 104 65.7934 100.24 66.3534 96.24C66.5134 96.16 66.5934 96.16 66.7534 96.08C68.5134 102.8 67.0734 110 67.5534 116.88ZM108.423 83.04C106.423 83.76 104.503 84.48 102.583 85.28C100.343 86.24 98.1828 87.28 96.1028 88.32C95.3828 88.72 94.5028 89.12 94.2628 90.32C95.5428 90.16 96.6628 90 98.1028 89.84C98.0228 91.28 98.0228 92.64 97.7828 93.92C97.6228 94.88 97.5428 95.84 98.1028 96.8C98.2628 97.2 98.5028 97.68 98.5028 98.08C98.3428 107.12 96.8228 116.08 97.4628 125.12C98.6628 128.48 93.3828 130.24 91.2228 128.16C89.1428 126.32 86.7428 124.8 87.7028 121.6C87.7028 121.36 87.7028 121.12 87.6228 120.88C86.9028 119.44 87.3828 117.92 87.8628 116.72C88.3428 115.68 88.1028 115.2 87.7028 114.4C86.8228 112.96 88.1028 109.6 88.1828 107.68C88.4228 108.88 88.5828 110.08 88.7428 111.28C88.9028 111.28 88.9828 111.28 89.1428 111.28C89.3828 110.56 89.3828 109.84 89.2228 109.12C89.3028 107.52 89.5428 106 89.5428 104.4C89.4628 101.2 89.0628 97.92 89.3828 94.64C89.6228 91.68 88.1028 87.6 90.9028 85.52C91.1428 85.44 91.1428 85.04 91.2228 84.8C90.9828 84.72 90.6628 84.64 90.4228 84.72C88.2628 85.52 86.1828 86.32 84.1028 87.12C82.2628 87.76 80.5028 88.32 78.6628 88.88C78.1828 89.04 77.5428 89.12 78.4228 89.84C79.7828 91.36 78.6628 93.76 78.9828 95.6C79.5428 97.84 77.6228 99.52 78.5028 101.28C78.7428 101.84 78.9028 102.56 78.9028 103.2C78.7428 106.88 78.1028 110.56 78.5828 114.24C78.7428 116.64 79.1428 119.2 78.9028 121.6C78.6628 123.2 78.6628 124.8 79.1428 126.4C79.5428 127.76 78.9028 129.36 80.1028 130.48C81.1428 131.76 83.1428 132.72 83.1428 134.56C83.1428 136.16 83.2228 137.76 83.3028 139.36C83.3028 139.6 83.4628 139.92 83.5428 139.92C84.4228 140 84.5028 138.96 84.8228 138.32C84.9828 138 85.0628 137.68 85.3028 137.44C86.2628 136.48 85.3028 136.32 85.7828 134.96C86.8228 135.68 87.9428 136.16 88.4228 137.12C88.9028 138.56 89.2228 140.08 89.3828 141.52C89.7028 143.12 88.9028 144.88 89.8628 146.24C90.9828 145.12 90.5028 143.2 92.0228 142.24C92.1028 142.08 92.1828 141.76 92.1828 141.52C91.8628 139.92 93.2228 139.28 94.5828 139.52C94.6628 139.92 94.8228 141.2 95.0628 141.68C95.3028 141.44 95.7028 141.2 95.7828 140.88C96.1828 138.72 99.9428 139.68 100.903 136.48C100.983 136.48 101.063 136.56 101.143 136.64C101.303 138.72 100.823 140.96 101.543 142.96C101.623 142.88 101.783 142.88 101.863 142.8C102.183 140.64 101.623 137.52 103.463 135.92C104.343 134 104.983 131.92 105.543 129.92C105.623 129.28 105.383 128.56 105.623 128.16C106.663 126.8 106.503 123.52 105.863 122.08C105.383 121.2 105.623 120.56 106.103 119.84C106.903 118.32 106.503 116 106.663 114.32C105.863 112.64 106.183 112.48 106.663 110.88C107.703 104.88 107.383 98.8 107.463 92.8C107.703 90.4 106.743 87.84 108.343 85.68C108.823 85.12 108.983 84.4 109.223 83.76C109.463 83.04 109.063 82.72 108.423 83.04ZM134.201 109.76C132.041 109.84 129.961 109.76 127.801 109.84C126.521 110.08 125.561 111.76 124.761 112.88C126.441 112.64 127.401 113.28 128.761 114.08C129.001 114.24 129.321 114.48 129.321 114.72C129.321 116.24 129.321 117.84 129.321 119.36C128.921 123.12 129.401 126.72 129.721 130.56C129.161 130.48 128.921 130.4 128.761 130.4C128.441 132.32 126.761 133.2 125.401 134.48C123.961 133.28 122.441 132 120.921 130.64C120.841 130.56 120.761 130.32 120.761 130.16C120.281 124.88 120.441 119.52 120.441 114.24C120.361 113.12 120.681 111.84 120.281 110.8C119.641 109.04 119.881 107.36 119.881 105.6C119.801 104.72 119.881 103.68 120.761 103.04C121.961 102.08 123.001 101.36 123.961 100.16C124.201 102.16 124.361 104.08 124.521 105.92C124.601 105.92 124.761 105.92 124.841 105.92C125.161 103.84 125.081 101.68 125.161 99.6C125.081 98.8 125.561 98.32 126.121 97.76C126.761 99.44 126.361 101.2 127.001 102.72C127.081 102.64 127.161 102.64 127.241 102.64C127.401 100.48 127.561 98.32 127.721 96.08C131.161 98.88 134.841 101.52 137.721 104.88C138.361 104.56 138.121 103.52 138.281 102.88C138.761 96.72 137.961 90.48 139.081 84.32C138.601 84.16 138.201 83.92 137.801 84.56C136.681 86.56 135.401 88.48 134.201 90.56C132.841 89.6 131.561 88.8 130.361 87.92C129.161 86.48 127.801 85.2 125.881 84.8C125.641 84.8 125.321 84.96 125.161 85.12C124.361 85.76 123.561 86.4 122.841 87.2C121.721 88.4 119.881 88.96 119.481 90.88C119.481 91.12 119.001 91.36 118.681 91.6C117.561 92.32 116.361 93.04 115.561 94.24C115.401 94.56 115.001 94.88 114.681 95.04C113.161 95.84 112.361 97.28 111.481 98.56C111.241 100 111.561 101.68 111.401 103.12C111.241 105.04 111.001 106.96 110.921 108.96C111.001 111.52 111.081 114.08 111.001 116.72C110.681 119.12 110.361 121.52 110.681 123.92C110.441 126.56 110.681 129.12 110.761 131.68C110.761 132.48 110.841 133.28 111.801 133.52C112.041 133.6 112.361 133.76 112.361 134C112.601 134.96 112.841 136 112.921 136.96C113.081 138.4 112.761 139.84 113.401 141.28C113.481 141.2 113.641 141.2 113.721 141.2C114.201 140 114.601 138.8 115.081 137.6C116.521 139.92 116.041 143.44 116.441 146.08C116.441 146.24 116.681 146.48 116.761 146.64C117.561 145.84 117.481 144.72 117.881 143.52C118.121 148.16 118.281 148.72 119.241 148.96C119.561 146.32 119.801 143.76 120.121 141.12C121.881 142.48 124.281 142.8 124.681 145.2C124.681 145.84 124.921 146.4 125.321 146.88C126.121 146 126.121 144.88 126.521 143.68C126.921 144.16 127.241 144.56 127.481 144.72C128.681 143.44 129.721 142.32 130.841 141.12C131.561 140.8 132.361 140.32 132.841 139.68C133.401 138.88 134.041 138.08 134.921 137.6C136.521 136.8 136.201 134.08 136.681 132.32C137.481 133.84 137.241 136.32 138.361 137.6C139.081 137.12 138.921 136.24 139.001 135.52C139.161 132.16 139.241 128.8 139.241 125.52C139.481 124.16 139.721 122.8 139.801 121.44C139.641 112.88 137.721 115.44 143.481 110.32C143.641 110.24 143.721 109.92 143.801 109.68C140.441 109.28 137.481 109.6 134.201 109.76Z" fill="black"/>
</svg>
