<svg width="196" height="196" viewBox="0 0 196 196" fill="none" xmlns="http://www.w3.org/2000/svg">
<path d="M193.815 127.65C192.408 137.17 189.067 146.691 184.142 155.154C161.632 193.414 100.431 201.701 56.4655 189.006C50.662 187.243 45.0343 185.304 39.9343 182.835C21.8203 174.196 10.0374 156.917 4.76154 138.934C3.0029 133.115 1.94772 127.297 1.59599 121.655C-0.162644 95.9135 11.9719 68.5852 34.8342 51.6592C42.3964 46.0172 50.4861 40.0226 59.8069 37.7306C69.3035 35.4385 77.3932 40.3752 86.714 40.3752C94.2762 40.5516 100.959 37.0253 108.169 35.2622C110.28 34.7333 112.214 34.3806 114.325 34.2043C119.425 33.6754 124.525 34.028 129.449 35.2622C156.884 42.491 180.449 63.6484 190.122 90.2715C194.518 102.437 195.749 115.308 193.815 127.65Z" fill="#FF8900"/>
<path d="M193.815 127.65C192.408 137.171 189.067 146.692 184.143 155.155C161.632 193.414 100.432 201.701 56.4656 189.006C50.6621 187.243 45.0345 185.304 39.9345 182.835C21.8205 174.196 10.0376 156.918 4.76172 138.934C7.39967 144.223 10.7411 149.336 14.6101 153.92C19.1825 159.21 24.4584 163.97 30.4378 167.496C21.117 152.686 19.3584 133.468 25.8654 117.247C24.8102 139.463 38.1758 161.854 58.4001 171.375C53.8277 158.504 53.3001 139.815 55.7622 126.416C57.5208 144.399 66.314 166.086 80.7348 177.017C80.3831 171.375 80.0314 165.91 79.6796 160.268C81.4383 167.144 84.9556 173.491 89.8797 178.428C95.6832 159.386 98.1453 139.463 98.4971 119.363C100.607 129.589 103.421 139.815 105.356 150.041C106.939 158.152 108.521 166.262 108.17 174.549C123.294 160.268 130.504 138.934 133.142 118.305C135.78 134.526 140.528 156.918 132.087 172.609C147.035 161.502 158.115 144.928 162.511 126.768C162.687 139.286 160.929 151.805 157.587 163.794C167.787 157.623 178.163 151.276 185.725 141.931C188.891 137.7 191.705 132.763 193.815 127.65Z" fill="#ED7803"/>
<path d="M108.697 195.53C90.9349 196.94 72.645 195.177 56.1139 190.24C50.1345 188.477 44.5069 186.362 39.4068 183.893C27.9757 178.428 18.3032 169.259 11.2686 157.27C4.93753 146.691 1.06853 133.997 0.189215 121.831C-1.74529 94.5031 11.2686 67.351 33.955 50.4251C41.3413 44.9594 49.7828 38.7885 59.4553 36.3201C65.4346 34.7333 71.0623 36.1438 76.3382 37.378C79.6796 38.0832 83.1969 38.9648 86.89 38.9648C91.6383 38.9648 96.0349 37.5543 100.783 35.9675C103.069 35.2623 105.356 34.3807 107.818 33.8518C109.928 33.3228 112.039 32.9702 114.149 32.7939C119.601 32.265 124.877 32.6176 129.801 34.0281C157.939 41.6095 181.505 62.9432 191.353 89.9189C199.267 111.782 196.981 135.76 185.198 155.86C171.656 178.78 146.86 188.477 128.57 192.532C122.063 194.119 115.38 195.001 108.697 195.53ZM63.676 38.6122C62.6208 38.6122 61.3898 38.7885 60.3346 39.1411C51.1897 41.4332 43.2758 47.2515 35.7137 52.7171C13.7307 68.9378 1.06853 95.3846 3.00303 121.479C4.40994 141.578 14.9618 169.436 40.462 181.601C45.3862 183.893 51.0138 186.009 56.8173 187.772C79.152 194.296 105.18 195.177 128.042 190.064C145.98 186.009 170.074 176.664 182.912 154.625C194.343 135.231 196.453 112.134 188.715 90.9768C179.394 64.7063 156.356 43.9015 129.097 36.6727C124.525 35.4386 119.425 35.0859 114.325 35.6149C112.39 35.7912 110.28 36.1438 108.345 36.6727C106.059 37.2017 103.773 38.0832 101.663 38.7885C96.9142 40.3753 91.9901 41.9621 86.7141 41.9621C82.8451 41.9621 79.152 41.0805 75.6347 40.199C71.5899 39.1411 67.7209 38.2596 63.676 38.6122Z" fill="black"/>
<path d="M85.1312 42.8438C83.3726 43.549 81.614 43.7253 79.6795 43.7253C77.9208 43.7253 75.9863 43.549 74.2277 43.3727C72.469 43.1964 70.7104 43.1964 68.9518 43.3727C67.1931 43.549 65.6104 44.0779 64.0276 44.7832C60.862 46.1937 58.0482 48.1331 55.5861 50.6015C53.124 53.0699 51.0137 55.8908 49.0792 58.8881C47.1447 61.8854 45.386 64.8827 43.6274 68.0564C41.8688 71.23 40.286 74.4036 38.7032 77.7535C35.5377 84.1007 32.8997 90.6243 31.1411 97.6768C30.2618 101.027 29.5583 104.553 29.0307 108.079C28.5031 111.605 28.1514 115.132 28.1514 118.658C27.9755 122.184 28.1514 125.71 28.3273 129.237C28.679 132.763 29.0307 136.289 29.7342 139.815C29.91 140.697 30.0859 141.578 30.2618 142.46C30.4376 143.342 30.6135 144.223 30.9652 145.105L31.6687 147.573C31.8445 148.455 32.1963 149.336 32.548 150.041C33.779 153.391 35.1859 156.741 36.7687 159.739C38.5274 162.912 40.4619 165.909 42.5722 168.73C44.8585 171.551 47.1447 174.196 49.7826 176.665C46.9688 174.549 44.155 172.08 41.6929 169.436C39.2308 166.791 37.1204 163.794 35.0101 160.62C31.1411 154.449 28.3273 147.397 26.5686 140.344C23.0514 125.887 23.5789 110.724 27.0962 96.4426C29.0307 89.2138 31.6687 82.3376 35.1859 75.8141C38.7032 69.4669 41.8688 62.9433 46.2654 56.9487C48.3757 53.9514 50.8378 51.1304 53.6516 48.6621C56.4655 46.1937 59.631 44.0779 63.1483 42.8438C64.9069 42.3148 66.8414 41.7859 68.7759 41.7859C70.7104 41.7859 72.469 41.9622 74.2277 42.3148C75.9863 42.6674 77.745 43.0201 79.5036 43.1964C81.4381 43.3727 83.3726 43.1964 85.1312 42.8438Z" fill="#ED7803"/>
<path d="M96.9141 41.9622C100.607 41.0807 104.124 39.4939 107.993 38.436C109.928 37.9071 111.862 37.5544 113.797 37.5544C115.731 37.5544 117.842 37.9071 119.776 38.2597C127.338 40.3754 134.373 44.2543 140.528 49.191C146.683 54.1278 151.784 60.1224 156.004 66.8222C160.225 73.5221 163.391 80.7509 165.677 88.156C167.963 95.5611 169.546 103.319 170.425 111.076C170.777 114.955 171.129 118.834 171.129 122.713C171.304 126.592 171.129 130.471 170.777 134.35C170.425 138.229 169.722 142.107 168.842 145.986C167.963 149.865 166.556 153.568 164.973 157.094C161.808 164.146 157.235 170.67 151.256 175.607C156.532 169.965 160.577 163.441 163.215 156.389C164.622 152.862 165.677 149.16 166.38 145.457C166.732 143.518 167.084 141.755 167.26 139.815C167.435 137.876 167.611 136.113 167.787 134.173C167.963 132.234 167.963 130.471 167.963 128.531C167.963 126.592 167.963 124.829 167.787 122.889C167.611 119.187 167.26 115.308 166.732 111.605C165.853 104.024 164.27 96.6189 161.984 89.3901C159.697 82.1614 156.708 75.2852 152.839 68.7616C148.97 62.4144 144.046 56.5961 138.418 51.4831C135.604 49.0147 132.614 46.7227 129.273 44.7832C126.107 42.8438 122.59 41.257 119.073 40.0228C117.314 39.4939 115.556 38.9649 113.621 38.9649C111.862 38.7886 109.928 39.1413 107.993 39.4939C106.059 39.8465 104.3 40.3754 102.366 40.7281C100.607 41.257 98.8486 41.6096 96.9141 41.9622Z" fill="#ED7803"/>
<path d="M87.7692 42.4913C86.5382 43.5492 84.9554 44.4308 83.3726 45.136C81.7898 45.8413 80.2071 46.3702 78.6243 46.8991C77.9208 47.2518 77.0415 47.4281 76.3381 47.7807C75.6346 48.1333 74.9311 48.4859 74.2277 49.0149C72.8208 49.8964 71.7656 50.9543 70.5345 52.1885C68.4242 54.6569 66.4897 57.3015 64.9069 60.2988C63.3241 63.2961 62.0931 66.2934 61.2138 69.4671C60.1586 72.6407 59.631 75.8143 58.9275 79.1642C58.4 82.5141 57.8724 85.6878 57.5206 89.0377C57.1689 92.3876 56.993 95.7375 56.8172 99.0875C56.6413 102.437 56.8172 105.787 56.8172 109.137C56.993 112.487 57.1689 115.837 57.3448 119.187C57.6965 122.537 58.0482 125.887 58.4 129.237C59.2793 135.937 60.3345 142.637 61.7414 149.16C62.0931 150.747 62.4448 152.51 62.9724 154.097C63.3241 155.684 63.8517 157.27 64.3793 159.034C65.2586 162.207 66.3138 165.381 67.5449 168.554C68.7759 171.728 70.1828 174.725 72.1173 177.37C72.6449 178.075 73.1725 178.78 73.5242 179.309C74.0518 180.015 74.5794 180.544 75.2829 181.249C76.5139 182.483 77.745 183.541 79.1519 184.599C76.1622 183.012 73.5242 180.72 71.238 178.075C70.1828 176.841 69.1276 175.254 68.2483 173.844C67.369 172.433 66.4897 170.846 65.7862 169.26C64.2035 166.086 62.9724 162.912 61.9172 159.739C60.6862 156.565 59.8069 153.215 58.9275 149.865C58.4 148.278 58.0482 146.515 57.6965 144.929C57.3448 143.342 56.993 141.579 56.6413 139.992C55.9379 136.642 55.4103 133.292 54.8827 129.942C54.3551 126.592 54.0034 123.242 53.6516 119.716C53.2999 116.366 53.124 112.84 52.9482 109.49C52.5965 95.7375 53.8275 81.9852 58.0482 68.7618C60.3345 62.2383 63.8517 55.891 68.7759 51.1306C70.007 49.8964 71.4139 48.8386 72.9966 47.957C73.7001 47.6044 74.5794 47.2518 75.4587 46.8991C76.3381 46.5465 77.0415 46.3702 77.9208 46.1939C79.5036 45.8413 81.2622 45.3123 82.845 44.7834C84.7795 44.0781 86.3623 43.3729 87.7692 42.4913Z" fill="#ED7803"/>
<path d="M92.5176 43.0204C92.8693 43.9019 93.3969 44.4309 93.9245 44.9598C94.6279 45.4888 95.3314 45.8414 96.2107 46.0177C97.7935 46.3703 99.5521 46.3703 101.311 46.3703C104.828 46.5466 108.345 47.7808 111.335 49.7202C114.325 51.6597 116.963 54.128 119.073 56.949C121.183 59.77 122.766 62.9436 124.173 66.1172C125.58 69.2909 126.635 72.6408 127.514 75.9907C127.866 77.5775 128.394 79.3406 128.745 80.9274C129.097 82.6906 129.449 84.2774 129.801 86.0405C131.208 92.7403 132.087 99.6165 132.79 106.493C133.318 113.369 133.494 120.245 133.318 127.121C133.318 128.884 133.142 130.647 132.966 132.234C132.79 133.997 132.79 135.584 132.615 137.347C132.263 140.697 131.911 144.223 131.383 147.573C130.856 150.923 130.152 154.45 129.273 157.799C128.394 161.149 127.339 164.499 125.932 167.673C123.294 174.02 119.601 180.015 114.676 184.775C119.073 179.486 122.063 173.315 124.173 166.968C125.228 163.794 126.108 160.444 126.811 157.27C127.514 153.921 128.042 150.571 128.394 147.221C129.097 140.521 129.625 133.821 129.625 126.945C129.801 120.245 129.449 113.369 128.921 106.669C128.394 99.9691 127.514 93.2693 126.283 86.5694C125.932 84.9826 125.58 83.2195 125.404 81.6327C125.052 80.0459 124.701 78.2828 124.349 76.696C123.47 73.346 122.766 70.1724 121.535 66.9988C120.48 63.8252 118.897 60.8279 117.138 58.1832C115.38 55.5385 113.094 53.0702 110.456 51.1307C107.818 49.1913 104.652 47.7808 101.487 47.4282C99.9039 47.2519 98.1452 47.0756 96.3866 46.5466C95.5073 46.194 94.8038 45.8414 94.1004 45.1361C93.221 44.6072 92.6934 43.7256 92.5176 43.0204Z" fill="#ED7803"/>
<path d="M89.5278 43.3729C91.9899 55.0095 93.9244 66.8224 95.3313 78.6353C95.6831 81.6326 96.0348 84.6299 96.3865 87.4509L97.2658 96.4428C97.6176 99.4401 97.7934 102.437 97.9693 105.435L98.6727 114.427L99.2003 123.419C99.3762 126.416 99.3762 129.413 99.5521 132.41L99.7279 141.402V145.81V150.218C99.7279 162.207 99.2003 174.02 98.1451 186.009L96.7382 150.218L96.5624 145.81L96.3865 141.402L96.0348 132.41C95.8589 129.413 95.6831 126.416 95.5072 123.595L94.9796 114.603L94.452 105.787C94.2761 102.79 94.1003 99.7927 93.9244 96.9718L93.221 88.1562C93.0451 85.1589 92.6934 82.1615 92.5175 79.3406L89.5278 43.3729Z" fill="#ED7803"/>
<path d="M8.80664 94.8557C10.917 86.7453 14.4343 78.8113 19.1826 71.7588C21.4688 68.2326 24.1068 64.8826 26.9206 61.709C29.7344 58.5354 32.9 55.7144 36.2414 52.8934C39.5828 50.2487 43.1001 47.7804 46.7932 45.6646C50.4863 43.7252 54.5312 41.9621 58.7519 40.9042C60.8623 40.3753 62.9727 40.0227 65.083 39.8463C67.1934 39.67 69.3037 39.67 71.4141 39.8463C75.6348 40.199 79.8556 40.9042 83.9004 41.7858C79.6797 41.4332 75.459 41.0805 71.4141 41.2568C67.1934 41.2568 63.1485 41.7858 59.2795 43.02C55.4105 44.2541 51.5415 45.841 48.0242 47.9567C44.507 50.0724 41.1656 52.3645 37.8241 55.0092C34.6586 57.6538 31.4931 60.2985 28.6792 63.4721C25.8654 66.4694 23.2275 69.6431 20.7654 72.993C16.0171 79.6928 11.9722 86.9216 8.80664 94.8557Z" fill="#FFC064"/>
<path d="M79.8556 44.7832C77.9211 45.4885 75.8107 45.4885 73.8762 45.4885C72.8211 45.4885 71.9417 45.6648 71.0624 45.8411C70.5348 46.0174 70.1831 46.0174 69.6555 46.1937C69.1279 46.3701 68.7762 46.5464 68.2486 46.7227C66.49 47.4279 64.9072 48.3095 63.3244 49.3674C61.7416 50.4252 60.3347 51.6594 58.9278 53.0699C56.114 55.8909 53.8278 58.8882 51.3657 62.0618C49.0795 65.2354 46.7932 68.5854 44.1553 71.759C45.738 68.0564 47.4967 64.3539 49.607 61.0039C51.7174 57.4777 54.0036 54.1278 56.9933 51.1305C58.4002 49.72 60.1589 48.3095 61.9175 47.2516C63.6761 46.1937 65.6106 45.1359 67.721 44.6069C68.2486 44.4306 68.7762 44.4306 69.3038 44.2543C69.8314 44.078 70.359 44.078 70.8866 44.078C71.9417 44.078 72.9969 44.078 74.0521 44.2543C75.9866 44.4306 77.7452 44.7832 79.8556 44.7832Z" fill="#FFC064"/>
<path d="M86.0108 45.6647C83.7246 46.7225 81.4384 47.7804 79.5039 49.3672C78.4487 50.0725 77.7452 50.954 76.8659 51.8356C75.9866 52.7171 75.2831 53.775 74.5797 54.8329C73.1728 56.9486 71.9417 59.0644 71.0624 61.3564C70.7107 61.8854 70.5348 62.4143 70.3589 63.1196C70.1831 63.6485 69.8313 64.1774 69.6555 64.8827L68.952 66.6458L68.2486 68.4089C66.4899 73.1693 65.2589 77.9298 64.2037 82.8665C63.6761 85.3349 63.1485 87.8032 62.7968 90.2716C62.4451 92.74 61.9175 95.3846 61.5658 97.853C61.214 92.74 61.3899 87.6269 62.0933 82.5139C62.7968 77.4008 63.852 72.2878 65.6106 67.351C66.4899 64.8827 67.5451 62.5906 68.6003 60.1222C69.8313 57.8302 71.0624 55.5381 72.821 53.4224C74.5797 51.3067 76.3383 49.5435 78.8004 48.133C81.0866 46.8989 83.5487 46.1936 86.0108 45.6647Z" fill="#FFC064"/>
<path d="M98.1455 47.9568C100.608 47.9568 102.894 48.8383 105.004 50.0725C107.115 51.483 108.697 53.2461 110.28 55.1856C111.687 57.125 113.094 59.2407 114.149 61.3565C115.204 63.4722 116.259 65.588 117.139 67.88C118.897 72.4641 119.953 77.2246 120.48 81.985C121.008 86.7454 121.008 91.5058 120.656 96.2662C119.953 91.5058 119.249 86.9217 118.37 82.3376C117.491 77.7535 116.259 73.3457 114.677 68.9379C113.797 66.8222 112.918 64.7064 111.863 62.5907C110.808 60.4749 109.753 58.5355 108.521 56.5961C107.994 55.5382 107.29 54.6566 106.587 53.7751C106.235 53.2461 105.884 52.8935 105.532 52.5409C105.18 52.1883 104.652 51.6593 104.301 51.3067C102.542 49.7199 100.608 48.662 98.1455 47.9568Z" fill="#FFC064"/>
<path d="M98.6729 43.5499C100.959 43.1972 103.069 42.6683 105.356 42.1394C106.411 41.9631 107.642 41.6104 108.873 41.4341C110.104 41.2578 111.159 41.2578 112.39 41.2578C114.852 41.2578 117.139 41.7867 119.425 42.492C121.711 43.1972 123.821 44.2551 125.932 45.4893C129.977 47.9577 133.494 51.3076 136.308 55.0101C139.121 58.7127 141.584 62.7679 143.166 67.1757C140.528 63.4731 137.715 59.7706 134.725 56.5969C133.142 55.0101 131.559 53.4233 129.801 52.0128C128.042 50.6023 126.283 49.1918 124.525 48.134C122.59 46.8998 120.656 46.0182 118.721 45.313C116.611 44.6077 114.501 44.0788 112.39 43.7262C111.335 43.5499 110.28 43.5499 109.049 43.5499C107.994 43.5499 106.763 43.5499 105.707 43.7262C103.421 43.7262 100.959 43.9025 98.6729 43.5499Z" fill="#FFC064"/>
<path d="M137.891 43.02C144.046 45.3121 149.849 48.4857 155.125 52.3646C160.401 56.2434 165.325 61.0038 169.37 66.1169C173.415 71.4062 176.932 77.0482 179.57 83.2191C182.208 89.39 183.967 95.7373 184.67 102.261C182.736 95.9136 180.45 89.919 177.636 84.1007C174.646 78.2824 171.305 72.8167 167.26 67.88C163.215 62.767 158.818 58.1828 153.894 54.1277C148.97 50.0725 143.694 46.3699 137.891 43.02Z" fill="#FFC064"/>
<g opacity="0.5">
<path opacity="0.5" d="M106.939 43.1965C107.114 45.8412 99.5522 48.6621 89.8797 49.5437C80.2072 50.2489 72.2934 48.6621 72.1175 45.8412C71.9416 43.1965 79.5038 40.3755 89.1763 39.4939C98.8488 38.965 106.763 40.5518 106.939 43.1965Z" fill="#C66106"/>
</g>
<path d="M100.607 43.5499C93.9246 45.313 86.8901 46.5472 80.2073 44.9604C79.8555 44.7841 79.5038 44.7841 79.1521 44.4315C78.9762 44.2552 78.9762 43.9025 78.8004 43.5499C78.8004 43.021 78.4486 42.4921 78.2728 41.9631C77.3935 39.3184 77.2176 36.1448 78.0969 33.5001C79.6797 27.6819 83.5487 23.4504 88.1211 19.7478C89.528 18.6899 90.7591 17.6321 91.9901 16.3979C92.5177 15.869 93.0453 15.1637 93.397 14.6348C96.035 10.5796 93.397 5.64286 90.0556 2.82187C89.8798 2.64556 89.7039 2.64556 89.528 2.46925C89.8798 2.11662 90.0556 1.764 90.4074 1.41138C92.8695 2.99818 95.3315 4.58499 97.4419 6.52442C99.3764 8.28754 100.607 10.9322 100.959 13.5769C100.959 13.9295 100.959 14.2821 100.959 14.6348C100.783 17.4558 99.2005 19.7478 97.6178 22.0399C97.266 22.5688 96.9143 23.0977 96.5626 23.6267C95.6833 25.2135 94.9798 26.624 94.804 28.5634C94.6281 30.8555 94.9798 33.1475 96.035 35.2633C96.9143 36.8501 97.9695 38.2606 98.8488 39.8474C99.2005 40.0237 100.783 43.5499 100.607 43.5499Z" fill="#844003"/>
<path d="M100.607 43.549C93.9246 45.3121 86.8901 46.5463 80.2073 44.9595C79.8555 44.7832 79.5038 44.7832 79.1521 44.4306C78.9762 44.2543 78.9762 43.9016 78.8004 43.549C78.8004 43.0201 78.4486 42.4911 78.2728 41.9622C77.3935 39.3175 77.2176 36.1439 78.0969 33.4992C79.6797 27.6809 83.5487 23.4494 88.1211 19.7469C89.528 18.689 90.7591 17.6312 91.9901 16.397C91.8143 17.1022 91.4625 17.6312 91.1108 18.1601C90.0556 20.0995 88.4729 21.6863 87.2418 23.6258C85.3073 26.4468 84.0763 29.6204 83.5487 32.9703C86.0108 28.2099 89.7039 24.1547 94.1005 21.3337C92.3419 22.5679 91.2867 24.8599 90.935 26.9757C90.5832 29.4441 90.7591 31.7361 91.1108 34.2045C91.6384 31.0309 92.166 27.6809 94.2764 25.2126C94.9798 24.5073 95.6833 23.9784 96.5626 23.4494C95.6833 25.0363 94.9798 26.4468 94.804 28.3862C94.6281 30.6782 94.9798 32.9703 96.035 35.086C96.9143 36.6728 97.9695 38.0833 98.8488 39.6701C99.2006 40.0228 100.783 43.549 100.607 43.549Z" fill="#682F00"/>
<path d="M89.5279 47.0753C87.4175 47.2516 85.483 47.2516 83.7244 47.0753C83.3727 47.0753 83.0209 47.0753 82.8451 47.0753C81.7899 47.0753 80.7347 47.0753 79.6795 46.5463C77.9209 45.6648 77.3933 43.9017 77.0416 42.6675V42.4912C76.1623 39.4939 76.1623 36.3203 77.0416 33.323C78.8002 26.7994 83.7244 21.8627 87.4175 18.8654C89.1762 17.4549 91.1107 15.8681 92.3417 13.9286C94.4521 10.5787 92.3417 6.34723 89.352 4.05517C89.1762 3.87886 89.0003 3.87886 89.0003 3.70255C88.6486 3.52624 88.4727 3.17361 88.4727 2.82099C88.4727 2.46837 88.4727 2.11574 88.8244 1.76312C89.1762 1.4105 89.352 1.05787 89.7038 0.705248C89.7038 0.176312 90.0555 0 90.5831 0C92.3417 0 99.5521 6.69985 99.728 6.69985C102.894 10.5787 103.069 15.8681 100.256 20.6285L100.08 20.8048C97.6176 24.86 95.3314 28.7388 96.9142 33.1466C97.4418 34.3808 98.1452 35.615 99.0245 36.8492C99.3763 37.5544 99.9038 38.2597 100.256 38.9649C101.135 40.3754 101.487 41.6096 101.838 42.8438C101.838 43.0201 102.014 43.549 101.662 44.078C101.311 44.6069 100.783 44.7832 100.607 44.7832C96.3866 46.1937 92.8693 46.7227 89.5279 47.0753ZM94.6279 5.99461C96.2107 8.8156 96.5624 12.3418 94.6279 15.3391C93.221 17.6312 90.9348 19.3943 89.0003 20.9811C85.483 23.8021 81.0864 28.2099 79.5037 34.0282C78.8002 36.6729 78.8002 39.3176 79.5037 41.7859V41.9622C79.8554 43.0201 80.0313 43.7254 80.5588 44.078C81.0864 44.2543 81.7899 44.4306 82.6692 44.4306C83.0209 44.4306 83.3727 44.4306 83.7244 44.4306C85.483 44.6069 87.2417 44.6069 89.1762 44.4306C91.99 44.2543 95.1555 43.7254 98.6728 42.6675C98.4969 41.9622 98.1452 41.257 97.6176 40.3754C97.2659 39.6702 96.9142 39.1412 96.3866 38.436C95.5073 37.2018 94.6279 35.7913 94.1003 34.2045C91.99 28.5625 94.8038 23.6258 97.4418 19.3943L97.6176 19.218C99.3763 16.2207 100.256 11.9892 97.2659 8.46297C97.2659 8.28666 96.0348 7.05248 94.6279 5.99461Z" fill="black"/>
<path d="M99.904 42.8439C99.3764 42.8439 98.8488 42.6675 98.673 42.1386C96.5626 38.965 95.8592 35.0861 96.5626 31.7362C97.2661 28.21 99.5523 25.0364 102.718 23.6259C103.245 22.568 104.125 21.6864 105.004 21.1575C107.466 19.3944 110.632 19.5707 113.446 19.9233C113.797 19.9233 114.149 19.9233 114.677 20.0996C119.425 20.4522 123.997 19.5707 128.394 17.6313C129.097 17.2786 129.977 17.6313 130.153 18.3365C130.504 19.0418 130.153 19.9233 129.449 20.0996C124.701 22.2154 119.601 23.0969 114.501 22.7443C114.149 22.7443 113.621 22.7443 113.27 22.568C110.808 22.3917 108.873 22.3917 107.29 22.9206C107.642 22.9206 107.994 23.0969 108.345 23.2732C110.456 23.9785 111.687 26.0942 111.511 28.0337C111.335 29.7968 109.928 31.5599 107.818 32.2651C105.883 32.9704 103.773 32.6178 102.542 31.3836C101.663 30.502 101.311 29.2678 101.311 28.0337C100.256 29.2678 99.3764 30.8546 99.0247 32.4415C98.4971 35.2624 99.2006 38.2598 100.783 40.7281C101.135 41.4334 100.959 42.1386 100.432 42.6676C100.256 42.8439 100.08 42.8439 99.904 42.8439ZM104.476 25.9179V26.0942C104.125 27.1521 103.773 28.7389 104.476 29.4442C105.004 29.9731 106.235 29.9731 106.939 29.7968C107.818 29.4442 108.697 28.7389 108.697 27.8573C108.697 27.1521 108.17 26.2705 107.29 25.9179C106.411 25.389 105.356 25.5653 104.476 25.9179Z" fill="black"/>
<path d="M72.8375 85.84C71.7975 85.36 69.8775 86.72 68.5975 86.48C67.1575 86.48 65.7975 86.32 64.2775 87.2C62.5975 84.56 60.9975 84.96 59.3175 82.32C58.6775 82.96 58.9975 83.76 59.0775 84.48C59.5575 88.24 59.7975 92.08 59.9575 95.84C60.0375 97.84 60.1175 99.84 60.2775 101.84C60.2775 102.8 60.1175 103.6 60.2775 104.48C60.2775 104.64 60.5975 104.88 60.9175 105.2C62.2775 102.4 63.2375 99.52 64.4375 96.56C64.5975 95.92 66.0375 95.76 66.6775 95.52C67.9575 97.04 67.2375 99.44 68.0375 101.2C68.1175 101.2 68.2775 101.28 68.3575 101.28C68.6775 100.24 68.9975 99.04 69.3175 98.08C69.1575 106 69.7175 113.84 69.4775 121.76C69.3975 122.48 69.1575 123.36 68.6775 123.92C66.6775 126.32 64.7575 128.64 62.7575 131.2C61.2375 130.32 59.7975 129.28 58.9175 127.76C58.5975 126.24 58.9175 124.64 58.9975 123.12C59.2375 121.84 62.1975 120.32 63.2375 119.36C63.2375 119.28 63.1575 119.2 63.1575 119.12H48.8375C50.7575 122 50.5975 125.68 51.0775 129.04C51.3175 130.8 51.5575 132.08 51.3975 134C52.5975 133.6 52.9175 132.64 53.3175 131.76C53.6375 132.08 53.8775 132.48 54.0375 132.88C54.6775 134.32 56.0375 135.52 56.2775 137.12C56.4375 138.32 56.6775 138.64 57.8775 138.32C58.0375 139.36 58.6775 139.92 59.7975 140.24C61.3175 141.2 61.8775 142.88 61.8775 144.64C61.8775 144.96 62.0375 145.28 62.1175 145.28C62.9175 145.2 62.7575 145.84 62.9175 146.16C63.3975 147.28 62.4375 149.04 63.9575 149.44C64.2775 148 65.1575 144.32 65.7975 143.04C66.2775 142.24 66.9175 141.36 67.1575 140.48C67.3975 139.68 68.5175 139.04 67.7975 137.84C67.6375 137.6 67.7975 136.96 67.8775 136.48C68.0375 135.84 68.0375 135.04 68.7575 134.88C70.4375 136.32 69.2375 138.88 70.4375 140.72C70.5975 140.56 70.9975 140.4 70.9975 140.24C70.9975 139.36 71.3975 138.48 71.4775 137.6C71.6375 134.48 71.6375 133.28 73.7975 130.96C74.1975 131.92 74.1975 133.2 75.1575 133.68C75.5575 131.92 76.0375 130.16 76.4375 128.32C76.5175 127.76 76.5975 127.04 76.9975 126.56C79.1575 123.6 78.1975 119.92 78.1975 116.56C78.1975 114.96 78.1975 113.36 78.1175 111.76C78.1175 111.12 77.7175 110.64 77.9575 109.92C79.1575 103.36 77.8775 96.72 78.9975 90.16C79.0775 89.12 79.3175 88.32 80.1175 87.76C80.9975 87.2 81.7975 86.4 82.6775 85.68C78.5975 85.12 76.8375 85.68 72.8375 85.84ZM112.259 83.04C110.259 83.76 108.339 84.48 106.419 85.28C104.179 86.24 102.019 87.28 99.9388 88.32C99.2188 88.72 98.3388 89.12 98.0988 90.32C99.3788 90.16 100.499 90 101.939 89.84C101.859 91.28 101.859 92.64 101.619 93.92C101.459 94.88 101.379 95.84 101.939 96.8C102.099 97.2 102.339 97.68 102.339 98.08C102.179 107.12 100.659 116.08 101.299 125.12C102.499 128.48 97.2188 130.24 95.0588 128.16C92.9787 126.32 90.5788 124.8 91.5388 121.6C91.5388 121.36 91.5388 121.12 91.4588 120.88C90.7388 119.44 91.2188 117.92 91.6988 116.72C92.1788 115.68 91.9388 115.2 91.5388 114.4C90.6588 112.96 91.9388 109.6 92.0188 107.68C92.2588 108.88 92.4188 110.08 92.5788 111.28C92.7388 111.28 92.8188 111.28 92.9787 111.28C93.2188 110.56 93.2188 109.84 93.0588 109.12C93.1388 107.52 93.3788 106 93.3788 104.4C93.2988 101.2 92.8988 97.92 93.2188 94.64C93.4588 91.68 91.9388 87.6 94.7388 85.52C94.9788 85.44 94.9788 85.04 95.0588 84.8C94.8188 84.72 94.4988 84.64 94.2588 84.72C92.0988 85.52 90.0188 86.32 87.9388 87.12C86.0988 87.76 84.3388 88.32 82.4988 88.88C82.0188 89.04 81.3788 89.12 82.2588 89.84C83.6188 91.36 82.4988 93.76 82.8188 95.6C83.3788 97.84 81.4588 99.52 82.3388 101.28C82.5788 101.84 82.7388 102.56 82.7388 103.2C82.5788 106.88 81.9388 110.56 82.4188 114.24C82.5788 116.64 82.9788 119.2 82.7388 121.6C82.4988 123.2 82.4988 124.8 82.9788 126.4C83.3788 127.76 82.7388 129.36 83.9388 130.48C84.9788 131.76 86.9788 132.72 86.9788 134.56C86.9788 136.16 87.0588 137.76 87.1388 139.36C87.1388 139.6 87.2988 139.92 87.3788 139.92C88.2588 140 88.3388 138.96 88.6588 138.32C88.8188 138 88.8988 137.68 89.1388 137.44C90.0988 136.48 89.1388 136.32 89.6188 134.96C90.6588 135.68 91.7787 136.16 92.2588 137.12C92.7388 138.56 93.0588 140.08 93.2188 141.52C93.5388 143.12 92.7388 144.88 93.6988 146.24C94.8188 145.12 94.3388 143.2 95.8588 142.24C95.9388 142.08 96.0188 141.76 96.0188 141.52C95.6988 139.92 97.0588 139.28 98.4188 139.52C98.4988 139.92 98.6588 141.2 98.8988 141.68C99.1388 141.44 99.5388 141.2 99.6188 140.88C100.019 138.72 103.779 139.68 104.739 136.48C104.819 136.48 104.899 136.56 104.979 136.64C105.139 138.72 104.659 140.96 105.379 142.96C105.459 142.88 105.619 142.88 105.699 142.8C106.019 140.64 105.459 137.52 107.299 135.92C108.179 134 108.819 131.92 109.379 129.92C109.459 129.28 109.219 128.56 109.459 128.16C110.499 126.8 110.339 123.52 109.699 122.08C109.219 121.2 109.459 120.56 109.939 119.84C110.739 118.32 110.339 116 110.499 114.32C109.699 112.64 110.019 112.48 110.499 110.88C111.539 104.88 111.219 98.8 111.299 92.8C111.539 90.4 110.579 87.84 112.179 85.68C112.659 85.12 112.819 84.4 113.059 83.76C113.299 83.04 112.899 82.72 112.259 83.04ZM142.517 115.68C139.797 120.56 138.197 125.92 135.877 130.88C134.837 131.2 134.277 132.4 133.077 132.4C132.437 132.4 131.797 132.8 131.157 132.96C130.277 133.28 129.317 132.96 128.517 133.2C127.957 133.36 127.557 133.44 127.317 132.8C127.077 132.32 126.597 131.92 126.597 131.44C126.597 129.52 126.757 127.6 126.837 125.68C126.917 124.72 127.237 123.68 126.997 122.8C126.597 121.36 126.917 120.08 126.837 118.72C126.757 117.52 126.677 116.24 126.917 115.12C127.157 113.92 127.317 112.96 126.677 111.84C126.517 111.52 126.677 110.96 126.757 110.48C127.157 108.08 127.237 105.52 126.917 103.2C126.677 102.16 126.997 101.44 127.157 100.48C127.877 96.08 126.597 91.28 128.517 87.12C129.477 85.76 130.677 84.48 131.477 83.04C131.477 82.96 131.397 82.88 131.317 82.72C125.477 84.88 119.557 86.96 113.717 89.04C113.717 89.12 113.717 89.28 113.717 89.36C116.917 91.44 116.757 91.2 116.757 94.96C116.677 97.28 116.757 99.6 116.997 101.84C117.157 105.12 116.517 108.4 116.677 111.6C116.917 114.08 116.757 116.64 117.157 119.12C117.557 122.08 116.197 125.28 116.037 128.24C115.877 133.84 116.117 135.92 112.117 140.32C113.397 140.48 115.477 139.84 115.957 140.88C116.357 142.8 116.677 144.8 116.997 146.72C117.077 146.72 117.157 146.8 117.237 146.8C118.197 145.84 118.357 143.76 118.677 142.48C118.837 139.68 120.437 140.24 122.437 140.4C122.837 141.52 123.077 145.28 123.957 145.68C125.237 145.76 125.397 143.52 126.117 142.72C126.597 141.84 127.157 140.96 127.477 140C127.797 139.44 129.797 139.84 130.437 139.76C130.597 141.36 130.517 142.88 131.717 144.32C132.277 142.8 132.757 141.6 133.317 140.24C135.717 140.16 134.597 141.92 137.157 140.24C137.317 140.64 137.557 141.04 137.637 141.44C137.877 143.36 138.917 144.96 139.717 146.72C139.797 147.04 140.197 147.2 140.437 147.44C140.677 147.2 140.997 146.96 141.077 146.72C141.397 144.96 141.797 143.2 142.037 141.36C142.357 136.08 142.277 130.72 142.597 125.44C142.757 122.72 143.077 120.08 143.317 117.44C143.397 116.72 143.237 116.08 142.517 115.68Z" fill="black"/>
</svg>
