<svg width="354" height="364" viewBox="0 0 354 364" fill="none" xmlns="http://www.w3.org/2000/svg">
<path fill-rule="evenodd" clip-rule="evenodd" d="M138.634 36.7659C138.634 36.7659 128.61 32.3648 124.614 22.0055C120.686 11.6461 114.591 38.8648 126.714 49.4273C126.714 49.4273 128.746 51.2555 132.267 49.0211C135.789 46.7867 141.139 37.9846 138.634 36.7659Z" fill="white"/>
<path fill-rule="evenodd" clip-rule="evenodd" d="M138.634 36.7659C138.634 36.7659 136.331 35.7502 133.554 33.5836C132.945 35.0732 131.861 36.7659 129.762 37.9846C125.156 40.8284 118.655 37.8492 120.415 23.1565C118.722 29.4534 119.129 42.7242 126.782 49.3596C126.782 49.3596 128.813 51.1877 132.335 48.9534C135.789 46.7867 141.139 37.9846 138.634 36.7659Z" fill="#D1D3D3"/>
<path d="M287.087 28.9795C293.386 42.5889 294.605 58.1618 292.844 73.0576C291.083 87.9535 286.478 102.375 281.534 116.526C282.482 113.073 282.076 109.146 279.908 106.302C277.741 103.459 273.61 102.037 270.359 103.526C267.108 105.016 265.415 109.552 267.447 112.532C265.348 107.318 260.133 103.459 254.579 103.052C248.958 102.646 243.269 105.625 240.357 110.433C238.664 105.422 242.931 100.615 246.655 96.891C265.348 78.0003 279.434 54.4378 287.087 28.9795Z" fill="white"/>
<path d="M266.77 111.11C266.905 111.584 267.108 112.058 267.379 112.464C267.244 111.99 267.041 111.584 266.77 111.11Z" fill="#D1D3D3"/>
<path d="M270.36 103.459C273.61 101.969 277.742 103.391 279.909 106.235C282.076 109.078 282.482 113.005 281.534 116.459C286.478 102.307 291.083 87.8856 292.844 72.9898C294.605 58.0939 293.386 42.521 287.088 28.9116C293.928 54.9116 281.263 97.6356 275.1 97.0262C268.937 96.4168 265.619 102.917 265.619 102.917C265.619 102.917 264.264 96.4168 256.408 97.0939C249.432 97.7033 241.779 104.406 240.222 105.828C240.154 106.031 240.086 106.235 240.086 106.438L241.238 108.875C244.285 104.88 249.432 102.443 254.512 102.849C259.659 103.255 264.4 106.438 266.77 110.974C265.89 108.266 267.515 104.745 270.36 103.459Z" fill="#D1D3D3"/>
<path d="M67.7252 67.9116C65.8289 82.8075 69.4861 97.9741 75.7168 111.583C81.9475 125.193 90.7518 137.516 99.6916 149.5C97.7275 146.521 96.9148 142.594 98.1339 139.276C99.3529 135.891 102.875 133.318 106.396 133.724C109.986 134.13 112.898 137.922 111.882 141.375C112.288 135.755 116.081 130.542 121.296 128.443C126.511 126.344 132.877 127.427 137.076 131.151C137.144 125.87 131.658 122.552 126.985 120.182C103.349 107.995 82.7602 89.8491 67.7252 67.9116Z" fill="white"/>
<path d="M112.085 139.953C112.085 140.427 112.018 140.901 111.882 141.443C111.95 140.969 112.018 140.427 112.085 139.953Z" fill="#D1D3D3"/>
<path d="M106.396 133.792C102.807 133.386 99.353 135.959 98.134 139.344C96.9149 142.73 97.7276 146.589 99.6917 149.568C90.6842 137.584 81.8799 125.261 75.7169 111.651C69.4862 97.9743 65.8967 82.8076 67.7253 67.9795C69.1476 94.8597 94.2059 131.693 99.8948 129.256C105.584 126.818 110.663 131.964 110.663 131.964C110.663 131.964 109.918 125.328 117.639 123.636C124.479 122.078 133.825 126.141 135.722 127.021C135.857 127.224 135.925 127.36 136.06 127.563L135.722 130.271C131.59 127.36 125.969 126.683 121.228 128.578C116.488 130.542 112.898 135.011 112.018 140.089C112.018 136.974 109.444 134.131 106.396 133.792Z" fill="#D1D3D3"/>
<path d="M353.932 179.766C348.311 180.036 327.519 192.698 322.914 196.016C328.264 197.37 334.021 197.37 339.371 196.083C322.982 209.964 299.278 215.109 278.689 208.609C276.184 211.182 277.606 215.854 280.654 217.818C283.633 219.781 287.494 219.781 291.083 219.646C302.19 219.24 313.433 218.089 323.591 213.62C330.499 210.573 336.798 205.698 341.064 199.604C340.929 205.698 343.028 211.792 346.821 216.531C352.036 205.63 354.474 192.563 353.932 179.766Z" fill="white"/>
<path d="M63.12 174.011C63.12 174.011 78.155 240.568 83.3021 244.292C88.3815 248.016 91.6323 211.047 98.0662 226.349C104.5 241.583 122.447 281.531 124.344 256.073C126.24 230.615 124.615 211.86 146.557 247.474C168.5 283.089 201.483 342.672 218.075 325.677C234.668 308.682 201.754 296.766 198.096 292.432C194.507 288.167 197.961 286.542 207.984 294.464C218.008 302.386 222.478 291.417 212.454 282.547C202.499 273.61 216.518 266.094 220.649 276.115C224.712 286.136 225.322 311.323 237.851 317.552C250.38 323.781 253.902 304.011 244.082 288.844C234.262 273.61 235.278 262.37 240.56 261.964C245.843 261.557 245.504 277.469 252.615 277.74C259.726 278.011 258.575 266.974 261.758 273C264.874 279.026 279.638 289.792 281.873 282.886C284.108 275.979 284.92 272.594 288.916 278.823C292.844 285.052 305.373 292.162 306.457 274.083C307.54 256.005 278.622 214.906 283.092 193.849C287.562 172.792 300.429 196.896 309.166 189.042C317.902 181.188 303.951 169.542 311.536 167.646C319.121 165.682 334.156 174.146 327.926 156.88C321.695 139.615 319.054 122.891 318.106 102.849C315.6 48.8179 301.852 59.7189 289.322 100.141C280.044 130.136 250.651 140.563 247.874 111.11C245.098 81.7241 238.867 19.5679 192.001 17.2658C145.135 14.9637 128.881 33.7189 121.364 63.8491C113.846 94.0471 129.491 152.141 120.416 163.99C111.34 175.839 91.0905 152.209 78.4936 142.255C65.9644 132.302 55.6025 142.662 63.12 174.011Z" fill="white"/>
<path fill-rule="evenodd" clip-rule="evenodd" d="M202.634 30.1304C202.634 30.1304 216.653 23.9689 222.139 9.54707C227.625 -4.8748 236.158 33.1096 219.159 47.7346C219.159 47.7346 216.315 50.3075 211.438 47.1929C206.562 44.146 199.112 31.8231 202.634 30.1304Z" fill="white"/>
<path fill-rule="evenodd" clip-rule="evenodd" d="M202.634 30.1304C202.634 30.1304 205.817 28.7085 209.745 25.7293C210.558 27.7606 212.116 30.1304 215.028 31.8908C221.462 35.8179 230.537 31.6877 228.099 11.2397C230.537 20.0418 229.927 38.5262 219.227 47.7345C219.227 47.7345 216.382 50.3075 211.506 47.1929C206.562 44.146 199.112 31.8231 202.634 30.1304Z" fill="#D1D3D3"/>
<path d="M137.076 78.6772C137.076 78.6772 140.801 90.8647 150.418 95.9429C150.418 95.9429 150.824 99.396 152.45 103.052C154.075 106.709 156.174 108.13 156.242 104.813C156.31 101.495 156.784 99.7345 157.597 99.0575C157.597 99.0575 173.309 100.344 181.301 96.6877C181.301 96.6877 183.4 97.9741 184.01 101.021C184.619 104.068 184.89 105.354 185.974 104.203C187.057 103.052 189.834 98.5158 189.021 94.7918C189.021 94.7918 197.487 89.7137 202.634 81.2502C202.634 81.2502 204.801 109.078 181.368 119.235C181.368 119.235 182.723 117.136 182.655 113.818C182.587 110.5 180.285 109.485 179.811 109.755C179.337 110.026 180.623 111.719 179.336 113.886C178.05 116.052 175.815 119.235 169.855 119.37C163.895 119.505 159.493 119.235 159.087 115.375C158.748 111.584 160.306 110.839 160.306 110.839C160.306 110.839 160.983 110.432 160.17 109.755C159.358 109.146 155.091 109.552 152.924 115.985C152.991 116.12 137.279 108.401 137.076 78.6772Z" fill="#201E1F"/>
<path d="M137.55 80.573C137.55 80.573 141.275 92.7605 150.892 97.8386C150.892 97.8386 151.298 101.292 152.924 104.948C154.549 108.604 156.649 110.026 156.716 106.708C156.784 103.391 157.258 101.63 158.071 100.953C158.071 100.953 173.783 102.24 181.775 98.5834C181.775 98.5834 183.874 99.8699 184.484 102.917C185.093 105.964 185.364 107.25 186.448 106.099C187.531 104.948 190.308 100.412 189.495 96.6876C189.495 96.6876 197.961 91.6095 203.108 83.1459C203.108 83.1459 205.275 110.974 181.842 121.13C181.842 121.13 183.197 119.031 183.129 115.714C183.061 112.396 180.759 111.38 180.285 111.651C179.811 111.922 181.097 113.615 179.811 115.781C178.524 117.948 176.289 121.13 170.329 121.266C164.369 121.401 159.967 121.13 159.561 117.271C159.222 113.479 160.78 112.734 160.78 112.734C160.78 112.734 161.457 112.328 160.644 111.651C159.764 111.042 155.565 111.448 153.398 117.88C153.398 117.948 137.753 110.229 137.55 80.573Z" fill="#D1D3D3"/>
<path d="M171.277 70.7552L199.722 62.5625C199.79 62.5625 181.775 92.4219 171.277 70.7552Z" fill="#211E1F"/>
<path d="M197.487 67.2344C197.487 67.2344 181.571 93.9792 171.345 74.9531C171.277 74.9531 178.93 97.2969 197.487 67.2344Z" fill="#D1D3D3"/>
<path d="M172.293 71.026L197.216 64.052L172.97 72.0416L172.293 71.026Z" fill="white"/>
<path d="M167.755 70.7552L139.311 62.5625C139.243 62.5625 157.258 92.4219 167.755 70.7552Z" fill="#211E1F"/>
<path d="M141.546 67.2344C141.546 67.2344 157.461 93.9792 167.688 74.9531C167.755 74.9531 160.102 97.2969 141.546 67.2344Z" fill="#D1D3D3"/>
<path d="M166.74 71.026L141.749 64.052L166.062 72.0416L166.74 71.026Z" fill="white"/>
<path d="M288.916 278.891C291.49 282.886 297.517 287.219 301.851 285.052C297.449 283.63 292.912 279.703 289.864 274.084C284.04 263.386 281.263 269.683 280.112 279.162C278.893 288.641 271.917 282.683 267.921 274.625C263.925 266.568 262.164 263.927 259.32 267.11C256.476 270.292 255.121 277.401 249.838 269.412C244.488 261.422 242.05 255.058 234.939 258.037C227.828 261.016 234.533 276.25 239.747 291.281C244.962 306.313 228.776 304.011 227.15 291.417C225.525 278.823 224.577 261.422 210.693 265.011C196.742 268.599 209.339 283.224 210.287 289.386C211.235 295.547 206.02 286.339 196.065 282.683C186.177 279.094 190.308 295.005 205.072 304.349C219.836 313.693 218.482 321.615 205.072 319.854C191.662 318.094 157.8 268.938 143.307 235.49C128.813 202.042 120.822 203.328 118.113 222.084C115.404 240.839 113.575 237.86 104.161 210.844C94.8153 183.761 83.2343 215.11 79.7803 221.542C78.4935 223.912 75.3782 218.292 71.9242 210.302C76.1909 226.552 80.8639 242.531 83.2343 244.292C88.3137 248.016 91.5645 211.047 97.9984 226.349C104.432 241.584 122.38 281.531 124.276 256.073C126.172 230.615 124.547 211.86 146.49 247.474C168.433 283.089 201.415 342.672 218.008 325.677C234.6 308.683 201.686 296.766 198.029 292.433C194.439 288.167 197.893 286.542 207.917 294.464C217.94 302.386 222.41 291.417 212.386 282.547C202.431 273.61 216.45 266.094 220.581 276.115C224.645 286.136 225.254 311.323 237.783 317.552C250.313 323.781 253.834 304.011 244.014 288.844C234.194 273.61 235.21 262.37 240.492 261.964C245.775 261.558 245.436 277.469 252.547 277.74C259.659 278.011 258.507 266.974 261.69 273C264.806 279.026 279.57 289.792 281.805 282.886C284.107 276.047 284.988 272.662 288.916 278.891Z" fill="#D1D3D3"/>
<path d="M318.106 102.781C317.564 91.8125 316.616 83.5521 315.329 77.5938C314.11 86.6667 312.891 101.292 314.313 120.318C316.751 153.495 316.48 168.391 307.608 161.214C298.736 154.036 293.115 159.859 297.72 172.859C302.258 185.859 286.749 161.755 274.423 169.542C262.097 177.328 267.718 207.391 285.123 238.672C297.111 260.203 305.035 273.406 304.899 281.734C305.78 279.974 306.389 277.469 306.592 274.016C307.676 255.938 278.757 214.839 283.227 193.781C287.697 172.724 300.565 196.828 309.301 188.974C318.038 181.12 304.086 169.474 311.672 167.578C319.257 165.615 334.292 174.078 328.061 156.812C321.627 139.615 318.986 122.891 318.106 102.781Z" fill="#D1D3D3"/>
<path d="M346.415 206.104C342.013 206.104 347.16 190.057 347.16 190.057C347.16 190.057 341.877 193.917 337.61 201.703C333.344 209.49 324.133 213.417 315.735 212.604C307.337 211.792 306.457 212.13 297.72 215.38C290.203 218.156 280.383 212.333 277.741 210.641C277.674 210.912 277.606 211.182 277.606 211.453L280.112 217.344C280.315 217.547 280.586 217.682 280.789 217.885C283.769 219.849 287.629 219.849 291.219 219.714C302.326 219.307 313.568 218.156 323.727 213.688C330.635 210.641 336.933 205.766 341.2 199.672C341.064 205.766 343.164 211.859 346.957 216.599C352.036 205.698 354.542 192.698 354 179.833C353.932 179.766 350.817 206.104 346.415 206.104Z" fill="#D1D3D3"/>
<path d="M137.076 78.6772C137.076 78.6772 140.801 90.8647 150.418 95.9429C150.418 95.9429 150.824 99.396 152.45 103.052C154.075 106.709 156.174 108.13 156.242 104.813C156.31 101.495 156.784 99.7345 157.597 99.0575C157.597 99.0575 173.309 100.344 181.301 96.6877C181.301 96.6877 183.4 97.9741 184.01 101.021C184.619 104.068 184.89 105.354 185.974 104.203C187.057 103.052 189.834 98.5158 189.021 94.7918C189.021 94.7918 197.487 89.7137 202.634 81.2502C202.634 81.2502 204.801 109.078 181.368 119.235C181.368 119.235 182.723 117.136 182.655 113.818C182.587 110.5 180.285 109.485 179.811 109.755C179.337 110.026 180.623 111.719 179.336 113.886C178.05 116.052 175.815 119.235 169.855 119.37C163.895 119.505 159.493 119.235 159.087 115.375C158.748 111.584 160.306 110.839 160.306 110.839C160.306 110.839 160.983 110.432 160.17 109.755C159.358 109.146 155.091 109.552 152.924 115.985C152.991 116.12 137.279 108.401 137.076 78.6772Z" fill="#201E1F"/>
<path d="M67.2512 138.734C67.2512 138.734 78.4259 186.943 82.0153 198.453C85.6048 209.964 83.2344 214.432 82.0153 217.073C80.7963 219.714 88.7879 218.833 88.7879 218.833L97.389 213.688L99.353 201.703C99.353 201.703 91.8355 179.089 85.2661 163.177C78.6291 147.266 74.0237 139.615 74.0237 139.615L67.2512 138.734Z" fill="#D1D3D3"/>
<path d="M27.6319 1.96364C20.7917 -7.44782 136.67 363.12 136.67 363.12C136.67 363.12 146.219 366.912 148.386 358.583C148.318 358.583 35.4203 12.7293 27.6319 1.96364Z" fill="white"/>
<path d="M18.4213 59.9897C22.7557 72.0418 36.4362 80.0991 48.9654 77.4585C61.4945 74.8856 70.9761 61.6147 68.9443 49.021C67.5898 40.6252 62.0363 33.6512 57.9051 26.271C53.7739 18.8908 50.9971 9.41162 55.2638 2.09912C50.5231 9.61475 49.5072 19.4325 52.6903 27.7606C55.2638 34.4637 60.3432 40.2189 61.63 47.2606C63.1877 55.8595 57.9728 65.2033 49.8458 68.4533C41.7188 71.6356 31.4922 68.3856 26.7515 61.0054C23.5007 55.9272 22.8234 49.6981 22.4171 43.7397C22.0107 37.7814 21.7398 31.5522 19.0985 26.2033C16.4572 20.7866 10.836 16.3856 4.87622 17.2658C11.7842 20.7866 14.6964 29.1825 15.5768 36.9012C16.3895 44.62 15.8477 52.6772 18.4213 59.9897Z" fill="white"/>
<path d="M0 16.2502C3.38626 17.1981 6.02755 19.9741 7.51751 23.1564C9.00746 26.3387 9.48154 29.9273 9.68471 33.3804C12.4614 29.7919 13.071 24.646 11.1069 20.5835C15.5768 22.0731 19.8435 24.1721 23.7716 26.745C22.1462 22.2085 18.5567 18.3491 14.1546 16.3856C9.68471 14.4221 4.46987 14.3544 0 16.2502Z" fill="white"/>
<path d="M57.0924 0.880371C55.1283 3.79183 55.0606 7.6512 56.0765 11.0366C57.0924 14.422 59.1241 17.4012 61.2236 20.1772C56.7537 19.3647 52.9611 15.8439 51.6743 11.5106C49.3039 15.5731 47.4754 19.9741 46.2563 24.5106C44.4277 20.0418 44.5632 14.7606 46.5949 10.3595C48.559 5.9585 52.487 2.50537 57.0924 0.880371Z" fill="white"/>
<path d="M26.4806 0.0678378C26.0742 0.203254 26.0065 0.744921 26.0065 1.15117C25.6679 8.39596 26.0742 15.6408 27.0901 22.8178C28.7155 20.1095 30.07 17.2658 31.0859 14.2866C34.2012 16.4533 37.6552 18.146 41.2447 19.297C37.3843 12.5262 32.779 6.297 27.5642 0.541796C27.2933 0.270963 26.8869 -0.135287 26.4806 0.0678378Z" fill="white"/>
</svg>
